<?xml version="1.0" standalone="no"?>
<!DOCTYPE svg PUBLIC "-//W3C//DTD SVG 20010904//EN"
 "http://www.w3.org/TR/2001/REC-SVG-20010904/DTD/svg10.dtd">
<svg version="1.0" xmlns="http://www.w3.org/2000/svg"
 width="960.000000pt" height="540.000000pt" viewBox="0 0 960.000000 540.000000"
 preserveAspectRatio="xMidYMid meet">
<metadata>
Created by potrace 1.14, written by Peter Selinger 2001-2017
</metadata>
<g transform="translate(0.000000,540.000000) scale(0.100000,-0.100000)"
fill="#000000" stroke="none">
<path d="M4260 4649 c-1913 -82 -3420 -578 -3636 -1197 -109 -315 114 -627
636 -891 987 -500 2830 -735 4605 -586 1667 140 2918 609 3112 1166 34 98 33
211 -1 311 -198 569 -1502 1043 -3226 1173 -455 34 -1045 43 -1490 24z m-2036
-870 c116 -43 212 -164 251 -314 20 -79 20 -261 0 -338 -49 -188 -168 -307
-338 -338 -216 -40 -410 99 -472 337 -20 77 -20 261 0 339 47 180 163 303 315
335 65 13 179 4 244 -21z m626 -389 l0 -400 180 0 180 0 0 -95 0 -95 -295 0
-295 0 0 495 0 495 115 0 115 0 0 -400z m1012 373 c89 -41 154 -123 200 -253
29 -78 36 -289 14 -383 -31 -133 -104 -240 -197 -292 l-54 -30 -247 -3 -248
-3 0 496 0 497 243 -4 c223 -3 246 -5 289 -25z m1008 -239 c80 -146 150 -273
157 -282 10 -14 12 41 13 266 l0 282 115 0 115 0 0 -495 0 -495 -118 0 -117 0
-145 261 c-80 144 -150 269 -157 278 -10 13 -12 -41 -13 -261 l0 -278 -115 0
-115 0 0 495 0 495 118 0 117 0 145 -266z m1140 260 c0 -3 59 -223 130 -489
72 -266 130 -486 130 -489 0 -3 -51 -6 -114 -6 l-113 0 -25 93 -25 92 -158 0
-159 0 -25 -92 -24 -93 -118 0 c-90 0 -117 3 -114 13 2 6 61 224 130 482 69
259 128 476 130 483 3 9 48 12 180 12 96 0 175 -3 175 -6z m536 -324 c40 -179
74 -332 76 -340 2 -8 34 122 71 290 38 168 73 322 78 343 l10 37 124 0 c69 0
125 -3 125 -7 0 -7 -209 -823 -237 -925 l-16 -58 -152 0 -153 0 -20 78 c-45
167 -232 901 -232 907 0 3 57 4 127 3 l126 -3 73 -325z m896 120 c45 -115 85
-210 88 -210 3 0 43 95 88 210 l84 210 124 0 c68 0 124 -3 124 -6 0 -3 -65
-154 -145 -336 l-145 -329 0 -160 0 -159 -130 0 -130 0 0 158 0 159 -140 319
c-77 175 -143 327 -146 337 -5 16 5 17 119 17 l125 0 84 -210z"/>
<path d="M1993 3590 c-141 -86 -134 -503 10 -591 126 -76 247 72 247 301 0
143 -39 251 -104 291 -41 25 -112 25 -153 -1z"/>
<path d="M3578 3594 c-5 -4 -8 -142 -8 -307 l0 -300 69 5 c42 3 83 13 103 24
73 42 120 211 99 355 -14 90 -55 177 -96 200 -32 19 -155 36 -167 23z"/>
<path d="M5817 3518 c-30 -106 -87 -326 -87 -337 0 -7 34 -11 105 -11 58 0
105 3 105 7 0 9 -101 387 -105 391 -2 2 -10 -20 -18 -50z"/>
<path d="M2855 1591 c-168 -44 -265 -196 -265 -416 0 -195 79 -349 209 -408
68 -32 217 -31 286 1 99 46 162 129 195 257 59 229 -31 479 -197 551 -43 18
-182 27 -228 15z m155 -166 c112 -58 116 -439 6 -506 -58 -36 -144 -19 -180
35 -56 86 -61 304 -9 413 31 66 116 93 183 58z"/>
<path d="M3432 1258 c3 -302 5 -336 22 -368 54 -102 153 -150 306 -150 118 0
209 31 267 92 60 62 63 86 63 439 l0 319 -79 0 -80 0 -3 -308 c-3 -271 -5
-311 -20 -334 -23 -35 -77 -51 -150 -46 -47 4 -64 10 -86 31 l-27 27 -3 315
-3 315 -105 0 -105 0 3 -332z"/>
<path d="M4237 1583 c-3 -5 -4 -42 -3 -83 l1 -75 108 -3 107 -3 0 -334 0 -335
95 0 95 0 0 335 0 335 105 0 105 0 0 85 0 85 -304 0 c-168 0 -307 -3 -309 -7z"/>
<path d="M5000 1170 l0 -420 265 0 266 0 -3 83 -3 82 -167 3 -168 2 0 335 0
335 -95 0 -95 0 0 -420z"/>
<path d="M5680 1170 l0 -420 300 0 300 0 0 80 0 80 -200 0 -200 0 0 95 0 95
160 0 161 0 -3 78 -3 77 -157 3 -158 3 0 84 0 85 200 0 200 0 0 80 0 80 -300
0 -300 0 0 -420z"/>
<path d="M6420 1505 l0 -85 105 0 105 0 0 -335 0 -335 95 0 95 0 0 335 0 335
105 0 105 0 0 85 0 85 -305 0 -305 0 0 -85z"/>
</g>
</svg>
